<!-- SPDX-FileCopyrightText: 2026 Oliver Simon
     SPDX-License-Identifier: CC-BY-4.0
     Blatt & Nadel — https://creativecommons.org/licenses/by/4.0/ -->
<svg xmlns="http://www.w3.org/2000/svg" width="96" height="96" viewBox="0 0 96 96" fill="none" stroke-linecap="round" stroke-linejoin="round" role="img" aria-label="Waldkiefer · Pinus sylvestris">
  <title>Waldkiefer · Pinus sylvestris</title>
  <path class="leaf-axis" d="M13 85 Q19 81 25 75 Q37 72 47 64 Q58 59 68 53 L74 49.5" fill="none" stroke="currentColor" stroke-width="1.9"/>
  <path class="leaf-needle" d="M23.561 68.729 C22.756 65.839 21.809 62.893 20.732 59.961 C18.383 53.563 15.838 47.074 13.247 41.14 C11.628 37.431 10.025 33.92 8 31 C8.86 34.448 10.341 37.988 11.857 41.725 C14.284 47.705 16.891 54.143 19.23 60.512 C20.302 63.431 21.406 66.303 22.498 69.084 Z" fill="currentColor" stroke="none"/>
  <path class="leaf-needle" d="M24.849 68.52 C24.353 65.38 23.829 62.178 23.258 58.971 C22.013 51.975 20.991 44.883 20.066 38.362 C19.488 34.286 18.986 30.434 18 27 C17.712 30.561 18.095 34.452 18.571 38.555 C19.332 45.119 20.432 52.226 21.683 59.252 C22.256 62.472 22.953 65.659 23.752 68.748 Z" fill="currentColor" stroke="none"/>
  <path class="leaf-sheath" d="M26.027 74.78 L25.211 67.633 Q23.59 68.42 21.789 68.367 L23.973 75.22 Z" fill="currentColor" stroke="none"/>
  <path class="leaf-needle" d="M47.806 57.657 C47.818 53.93 47.705 50.106 47.463 46.265 C46.934 37.887 46.233 29.402 45.334 21.594 C44.772 16.715 44.171 12.091 43 8 C42.902 12.255 43.379 16.872 43.835 21.751 C44.564 29.557 45.339 38.014 45.866 46.366 C46.108 50.195 46.392 53.995 46.687 57.699 Z" fill="currentColor" stroke="none"/>
  <path class="leaf-needle" d="M49.091 57.909 C49.552 54.272 50.006 50.539 50.419 46.774 C51.319 38.558 52.472 30.243 53.55 22.561 C54.224 17.759 54.907 13.215 55 9 C53.647 12.993 52.839 17.538 52.059 22.335 C50.811 30.01 49.732 38.358 48.828 46.599 C48.414 50.376 48.131 54.142 47.975 57.815 Z" fill="currentColor" stroke="none"/>
  <path class="leaf-sheath" d="M48.039 64.148 L49.732 57.247 Q47.94 57.42 46.268 56.753 L45.961 63.852 Z" fill="currentColor" stroke="none"/>
  <path class="leaf-needle" d="M71.541 47.502 C72.684 44.986 73.739 42.375 74.674 39.721 C76.716 33.929 78.616 28.078 80.117 22.652 C81.056 19.261 81.877 16.041 82 13 C80.638 15.721 79.705 18.881 78.67 22.228 C77.014 27.582 75.196 33.428 73.165 39.189 C72.235 41.829 71.349 44.482 70.497 47.097 Z" fill="currentColor" stroke="none"/>
  <path class="leaf-needle" d="M72.573 48.321 C73.937 46.463 75.326 44.523 76.695 42.521 C79.681 38.153 82.939 33.75 85.982 29.618 C87.884 27.036 89.73 24.588 91 22 C88.735 23.783 86.778 26.175 84.783 28.704 C81.592 32.751 78.379 37.222 75.374 41.618 C73.996 43.632 72.74 45.685 71.628 47.72 Z" fill="currentColor" stroke="none"/>
  <path class="leaf-sheath" d="M68.874 53.582 L73.456 47.971 Q71.76 47.36 70.544 46.029 L67.126 52.418 Z" fill="currentColor" stroke="none"/>
</svg>
