<!-- SPDX-FileCopyrightText: 2026 Oliver Simon
     SPDX-License-Identifier: CC-BY-4.0
     Blatt & Nadel — https://creativecommons.org/licenses/by/4.0/ -->
<svg xmlns="http://www.w3.org/2000/svg" width="96" height="96" viewBox="0 0 96 96" fill="none" stroke-linecap="round" stroke-linejoin="round" role="img" aria-label="Stieleiche · Quercus robur">
  <title>Stieleiche · Quercus robur</title>
  <path class="leaf-blade" d="M50.85 9 C49.178 9 46.518 9.72 45.15 11 C43.782 12.28 43.668 15.88 42.3 17 C40.932 18.12 38.272 17.36 36.6 18 C34.928 18.64 32.914 19.88 31.85 21 C30.786 22.12 29.798 23.72 29.95 25 C30.102 26.28 31.736 28.04 32.8 29 C33.864 29.96 37.056 30.2 36.6 31 C36.144 31.8 31.47 32.88 29.95 34 C28.43 35.12 27.252 36.72 27.1 38 C26.948 39.28 27.784 41.04 29 42 C30.216 42.96 34.7 43.04 34.7 44 C34.7 44.96 29.836 46.72 29 48 C28.164 49.28 28.563 50.88 29.475 52 C30.387 53.12 33.256 54.52 34.7 55 C36.144 55.48 38.652 54.2 38.5 55 C38.348 55.8 34.358 58.56 33.75 60 C33.142 61.44 33.94 62.88 34.7 64 C35.46 65.12 37.284 66.52 38.5 67 C39.716 67.48 42.148 66.2 42.3 67 C42.452 67.8 39.678 70.56 39.45 72 C39.222 73.44 39.963 75.2 40.875 76 C41.787 76.8 44.77 76.04 45.15 77 C45.53 77.96 43.402 80.72 43.25 82 C43.098 83.28 43.44 84.84 44.2 85 C44.96 85.16 46.784 83 48 83 C49.216 83 50.888 85.16 51.8 85 C52.712 84.84 53.776 83.12 53.7 82 C53.624 80.88 50.869 78.8 51.325 78 C51.781 77.2 55.258 77.8 56.55 77 C57.842 76.2 59.552 74.28 59.4 73 C59.248 71.72 55.144 70.12 55.6 69 C56.056 67.88 61.11 67.28 62.25 66 C63.39 64.72 63.637 62.28 62.725 61 C61.813 59.72 56.322 59.12 56.55 58 C56.778 56.88 62.782 55.44 64.15 54 C65.518 52.56 65.86 50.28 65.1 49 C64.34 47.72 59.096 47.12 59.4 46 C59.704 44.88 65.48 43.44 67 42 C68.52 40.56 69.508 38.44 68.9 37 C68.292 35.56 63.352 34.28 63.2 33 C63.048 31.72 67.342 30.6 67.95 29 C68.558 27.4 68.368 24.12 67 23 C65.632 21.88 60.616 23.12 59.4 22 C58.184 20.88 60.008 17.76 59.4 16 C58.792 14.24 56.968 12.12 55.6 11 C54.232 9.88 52.522 9 50.85 9 Z" fill="none" stroke="currentColor" stroke-width="1.9"/>
  <path class="leaf-petiole" d="M47 90 Q48 87 48 83" fill="none" stroke="currentColor" stroke-width="1.9"/>
  <path class="leaf-midrib" d="M48 83 Q46.1 51 50.85 13" fill="none" stroke="currentColor" stroke-width="1.9"/>
  <path class="leaf-vein" d="M48.859 32 Q39.545 29.76 32.8 24" fill="none" stroke="currentColor" stroke-width="1.12"/>
  <path class="leaf-vein" d="M48.082 43 Q37.565 41.6 29.95 38" fill="none" stroke="currentColor" stroke-width="1.12"/>
  <path class="leaf-vein" d="M47.579 55 Q38.456 53.6 31.85 50" fill="none" stroke="currentColor" stroke-width="1.12"/>
  <path class="leaf-vein" d="M47.462 66 Q41.162 64.88 36.6 62" fill="none" stroke="currentColor" stroke-width="1.12"/>
  <path class="leaf-vein" d="M47.667 76 Q44.554 75.16 42.3 73" fill="none" stroke="currentColor" stroke-width="1.12"/>
  <path class="leaf-vein" d="M49.031 30 Q57.8 28.88 64.15 26" fill="none" stroke="currentColor" stroke-width="1.12"/>
  <path class="leaf-vein" d="M48.025 44 Q58.48 42.32 66.05 38" fill="none" stroke="currentColor" stroke-width="1.12"/>
  <path class="leaf-vein" d="M47.554 56 Q56.078 54.6 62.25 51" fill="none" stroke="currentColor" stroke-width="1.12"/>
  <path class="leaf-vein" d="M47.468 67 Q54.389 65.88 59.4 63" fill="none" stroke="currentColor" stroke-width="1.12"/>
  <path class="leaf-vein" d="M47.704 77 Q52.835 76.16 56.55 74" fill="none" stroke="currentColor" stroke-width="1.12"/>
  <path class="leaf-vein" d="M47.742 50 Q40.487 49 35.65 44" fill="none" stroke="currentColor" stroke-width="1.12"/>
  <path class="leaf-vein" d="M47.464 62 Q52.916 61 56.55 58" fill="none" stroke="currentColor" stroke-width="1.12"/>
</svg>
