<!-- SPDX-FileCopyrightText: 2026 Oliver Simon
     SPDX-License-Identifier: CC-BY-4.0
     Blatt & Nadel — https://creativecommons.org/licenses/by/4.0/ -->
<svg xmlns="http://www.w3.org/2000/svg" width="96" height="96" viewBox="0 0 96 96" fill="none" stroke-linecap="round" stroke-linejoin="round" role="img" aria-label="Traubeneiche · Quercus petraea">
  <title>Traubeneiche · Quercus petraea</title>
  <path class="leaf-blade" d="M49.72 10 C48.206 10.16 45.076 11.56 43.7 13 C42.324 14.44 42.358 17.88 41.12 19 C39.882 20.12 37.198 19.2 35.96 20 C34.722 20.8 33.504 22.56 33.38 24 C33.256 25.44 35.461 27.88 35.186 29 C34.911 30.12 32.499 29.88 31.66 31 C30.821 32.12 29.789 34.56 29.94 36 C30.091 37.44 32.744 38.72 32.606 40 C32.468 41.28 29.369 42.56 29.08 44 C28.791 45.44 29.961 47.88 30.8 49 C31.639 50.12 34.051 50.04 34.326 51 C34.601 51.96 32.396 53.4 32.52 55 C32.644 56.6 34.123 59.88 35.1 61 C36.077 62.12 38.076 61.2 38.626 62 C39.176 62.8 37.866 64.4 38.54 66 C39.214 67.6 41.464 70.24 42.84 72 C44.216 73.76 45.764 77 47.14 77 C48.516 77 50.064 73.28 51.44 72 C52.816 70.72 54.914 70.12 55.74 69 C56.566 67.88 56.6 66.12 56.6 65 C56.6 63.88 54.791 63.28 55.74 62 C56.689 60.72 61.433 58.44 62.534 57 C63.635 55.56 63.157 54.12 62.62 53 C62.083 51.88 58.781 50.96 59.18 50 C59.579 49.04 64.013 48.28 65.114 47 C66.215 45.72 66.597 43.28 66.06 42 C65.523 40.72 61.774 40.28 61.76 39 C61.746 37.72 65.561 35.6 65.974 34 C66.387 32.4 65.289 29.96 64.34 29 C63.391 28.04 60.329 28.96 60.04 28 C59.751 27.04 62.534 24.6 62.534 23 C62.534 21.4 61.265 18.8 60.04 18 C58.815 17.2 55.981 18.96 54.88 18 C53.779 17.04 53.986 13.28 53.16 12 C52.334 10.72 51.234 9.84 49.72 10 Z" fill="none" stroke="currentColor" stroke-width="3.2"/>
  <path class="leaf-petiole" d="M43 91 Q46.5 84 47.14 77" fill="none" stroke="currentColor" stroke-width="3.1"/>
  <path class="leaf-midrib" d="M47.14 77 Q47.57 44 49.72 14" fill="none" stroke="currentColor" stroke-width="3.1"/>
  <path class="leaf-vein" d="M48.707 30 Q40.815 28.32 35.1 24" fill="none" stroke="currentColor" stroke-width="2.05"/>
  <path class="leaf-vein" d="M47.66 54 Q38.38 51.48 31.66 45" fill="none" stroke="currentColor" stroke-width="2.05"/>
  <path class="leaf-vein" d="M48.936 26 Q54.877 24.6 59.18 21" fill="none" stroke="currentColor" stroke-width="2.05"/>
  <path class="leaf-vein" d="M47.798 50 Q56.893 48.32 63.48 44" fill="none" stroke="currentColor" stroke-width="2.05"/>
</svg>
