<!-- SPDX-FileCopyrightText: 2026 Oliver Simon
     SPDX-License-Identifier: CC-BY-4.0
     Blatt & Nadel — https://creativecommons.org/licenses/by/4.0/ -->
<svg xmlns="http://www.w3.org/2000/svg" width="96" height="96" viewBox="0 0 96 96" fill="none" stroke-linecap="round" stroke-linejoin="round" role="img" aria-label="Wacholder · Juniperus communis">
  <title>Wacholder · Juniperus communis</title>
  <path d="M46 85 Q49 60 49 23" fill="none" stroke="currentColor" stroke-width="3.3" class="leaf-axis"/>
  <path d="M47.28 73.59 Q34.12 62.83 22 57 Q31.88 66.13 46.72 74.41 Z" fill="currentColor" stroke="none" class="leaf-needle"/>
  <path d="M47.28 74.41 Q62.7 65.56 73 56 Q60.42 62.28 46.72 73.59 Z" fill="currentColor" stroke="none" class="leaf-needle"/>
  <path d="M47.49 73.89 Q45.59 58.45 41 47 Q41.69 59.31 46.51 74.11 Z" fill="currentColor" stroke="none" class="leaf-needle"/>
  <path d="M49.28 52.59 Q36.12 41.83 24 36 Q33.88 45.13 48.72 53.41 Z" fill="currentColor" stroke="none" class="leaf-needle"/>
  <path d="M49.28 53.41 Q64.7 44.56 75 35 Q62.42 41.28 48.72 52.59 Z" fill="currentColor" stroke="none" class="leaf-needle"/>
  <path d="M49.48 53.14 Q55.4 38.45 57 26 Q51.56 37.31 48.52 52.86 Z" fill="currentColor" stroke="none" class="leaf-needle"/>
  <path d="M49.28 30.59 Q36.12 19.83 24 14 Q33.88 23.13 48.72 31.41 Z" fill="currentColor" stroke="none" class="leaf-needle"/>
  <path d="M49.28 31.41 Q64.7 22.56 75 13 Q62.42 19.28 48.72 30.59 Z" fill="currentColor" stroke="none" class="leaf-needle"/>
  <path d="M49.49 30.89 Q47.59 15.45 43 4 Q43.69 16.31 48.51 31.11 Z" fill="currentColor" stroke="none" class="leaf-needle"/>
</svg>
